#N canvas 485 648 926 739 10;
#X obj 26 26 inlet~;
#X obj 83 26 inlet~;
#X obj 139 26 inlet;
#X obj 59 91 *~;
#X obj 169 91 *~;
#X obj 59 154 outlet~;
#X obj 170 154 outlet~;
#X obj 188 26 inlet;
#X connect 0 0 3 0;
#X connect 1 0 4 0;
#X connect 2 0 3 1;
#X connect 3 0 5 0;
#X connect 4 0 6 0;
#X connect 7 0 4 1;
