#N canvas 557 505 829 671 10;
#X obj 24 29 inlet~;
#X obj 77 29 inlet~;
#X obj 173 29 inlet;
#X obj 232 29 inlet;
#X obj 36 65 delwrite~ itdr 5;
#X obj 4 99 delwrite~ itdl 5;
#X obj 93 198 outlet~;
#X obj 211 208 outlet~;
#X obj 93 170 delread4~ itdl;
#X obj 212 181 delread4~ itdr;
#X obj 148 91 max 0;
#X obj 247 122 max 0;
#X connect 0 0 5 0;
#X connect 1 0 4 0;
#X connect 2 0 11 0;
#X connect 3 0 10 0;
#X connect 8 0 6 0;
#X connect 9 0 7 0;
#X connect 10 0 8 0;
#X connect 11 0 9 0;
