#N canvas 1372 520 2259 1606 10;
#X obj 46 43 inlet~;
#X obj 114 42 inlet~;
#X obj 229 37 inlet;
#X obj 52 413 *~;
#X obj 86 413 *~;
#X obj 182 322 expr 6 * max($f1 \, 0);
#X obj 421 309 expr 6 * (1 - abs($f1));
#X obj 825 326 expr 6 * max(-$f1 \, 0);
#X obj 139 382 dbtorms;
#X obj 139 358 + 94;
#X obj 337 411 *~;
#X obj 371 411 *~;
#X obj 421 379 dbtorms;
#X obj 421 355 + 94;
#X obj 670 418 *~;
#X obj 704 418 *~;
#X obj 783 387 dbtorms;
#X obj 783 363 + 94;
#X obj 631 215 *~ 0.5;
#X obj 693 217 *~ 0.5;
#X obj 745 214 *~ 0.5;
#X obj 795 214 *~ 0.5;
#X obj 56 239 *~ 0.5;
#X obj 104 240 *~ 0.5;
#X obj 153 239 *~ 0.5;
#X obj 199 239 *~ 0.5;
#X obj 295 693 outlet~;
#X obj 376 694 outlet~;
#X obj 167 593 *~ 0.5;
#X obj 263 589 *~ 0.5;
#X obj 631 183 rpf 20 2000;
#X obj 724 183 rpf 8000 16000;
#X obj 328 211 rpf 6000 10000;
#X obj 57 213 rpf 200 600;
#X obj 149 213 rpf 1000 7000;
#X obj 229 64 send \$0-dir;
#X obj 421 273 receive \$0-dir;
#X obj 182 297 receive \$0-dir;
#X obj 825 299 receive \$0-dir;
#X obj 77 473 throw~ \$0-ol;
#X obj 155 473 throw~ \$0-or;
#X obj 331 478 throw~ \$0-ol;
#X obj 409 477 throw~ \$0-or;
#X obj 674 481 throw~ \$0-ol;
#X obj 756 481 throw~ \$0-or;
#X obj 378 563 catch~ \$0-ol;
#X obj 466 564 catch~ \$0-or;
#X obj 47 67 throw~ \$0-l;
#X obj 122 68 throw~ \$0-r;
#X obj 65 148 catch~ \$0-l;
#X obj 157 147 catch~ \$0-r;
#X obj 275 140 catch~ \$0-l;
#X obj 371 138 catch~ \$0-r;
#X obj 653 116 catch~ \$0-l;
#X obj 750 117 catch~ \$0-r;
#X obj 144 546 catch~ \$0-l;
#X obj 234 545 catch~ \$0-r;
#X obj 61 330 +~;
#X obj 103 327 +~;
#X obj 650 315 +~, f 4;
#X obj 724 291 +~;
#X connect 0 0 47 0;
#X connect 1 0 48 0;
#X connect 2 0 35 0;
#X connect 3 0 39 0;
#X connect 4 0 40 0;
#X connect 5 0 9 0;
#X connect 6 0 13 0;
#X connect 7 0 17 0;
#X connect 8 0 4 1;
#X connect 8 0 3 1;
#X connect 9 0 8 0;
#X connect 10 0 41 0;
#X connect 11 0 42 0;
#X connect 12 0 11 1;
#X connect 12 0 10 1;
#X connect 13 0 12 0;
#X connect 14 0 43 0;
#X connect 15 0 44 0;
#X connect 16 0 15 1;
#X connect 16 0 14 1;
#X connect 17 0 16 0;
#X connect 18 0 59 0;
#X connect 19 0 60 0;
#X connect 20 0 59 1;
#X connect 21 0 60 1;
#X connect 22 0 57 0;
#X connect 23 0 58 0;
#X connect 24 0 57 1;
#X connect 25 0 58 1;
#X connect 28 0 26 0;
#X connect 29 0 27 0;
#X connect 30 0 18 0;
#X connect 30 1 19 0;
#X connect 31 0 20 0;
#X connect 31 1 21 0;
#X connect 32 0 10 0;
#X connect 32 1 11 0;
#X connect 33 0 22 0;
#X connect 33 1 23 0;
#X connect 34 0 24 0;
#X connect 34 1 25 0;
#X connect 36 0 6 0;
#X connect 37 0 5 0;
#X connect 38 0 7 0;
#X connect 45 0 26 0;
#X connect 46 0 27 0;
#X connect 49 0 33 0;
#X connect 49 0 34 0;
#X connect 50 0 33 1;
#X connect 50 0 34 1;
#X connect 51 0 32 0;
#X connect 52 0 32 1;
#X connect 53 0 30 0;
#X connect 53 0 31 0;
#X connect 54 0 30 1;
#X connect 54 0 31 1;
#X connect 55 0 28 0;
#X connect 56 0 29 0;
#X connect 57 0 3 0;
#X connect 58 0 4 0;
#X connect 59 0 14 0;
#X connect 60 0 15 0;
