#N canvas 447 461 1440 750 12;
#X obj 684 579 dac~;
#X obj 679 500 *~;
#X floatatom 740 477 5 0 0 0 - - -;
#X text 544 303 MIDI pitch;
#X obj 564 227 tgl 15 0 empty empty empty 17 7 0 10 -262144 -1 -1 1
1;
#X floatatom 771 179 5 0 0 0 - - -;
#X obj 676 315 tgl 15 0 empty empty empty 17 7 0 10 -262144 -1 -1 1
1;
#X obj 669 336 sel 0 1;
#X floatatom 669 386 5 0 0 0 - - -;
#X floatatom 713 359 5 0 0 0 - - -;
#X floatatom 669 359 5 0 0 0 - - -;
#X obj 460 72 loadbang;
#X floatatom 635 71 5 0 0 0 - - -;
#X obj 670 289 metro;
#X obj 954 436 line~;
#X obj 926 297 bng 15 250 50 0 empty empty empty 17 7 0 10 -262144
-1 -1;
#X obj 1065 381 pack 0 500;
#X floatatom 1199 237 5 0 0 0 - - -;
#X obj 997 314 del 500;
#X msg 924 353 1 50;
#X obj 877 483 *~;
#X text 1088 282 decay time;
#X obj 835 531 *~;
#X obj 676 452 osc~;
#X obj 671 417 mtof~;
#X obj 741 211 * 100;
#X obj 720 435 r soundBar @hv_param 0 1 1;
#X obj 772 269 +;
#X floatatom 906 197 5 0 0 0 - - -;
#X obj 889 91 r toneOne @hv_param 0 1 0.5;
#X obj 1190 119 r decayTime @hv_param 0 1 1;
#X obj 904 166 r toneDif @hv_param 0 1 0.12;
#X obj 848 219 * 100;
#X obj 1211 175 * 100;
#X floatatom 667 178 5 0 0 0 - - -;
#X obj 627 39 r metro @hv_param 0 1 0.5;
#X obj 670 146 * 1000;
#X floatatom 820 256 5 0 0 0 - - -;
#X connect 1 0 0 0;
#X connect 1 0 0 1;
#X connect 2 0 1 1;
#X connect 4 0 13 0;
#X connect 5 0 25 0;
#X connect 6 0 7 0;
#X connect 7 0 10 0;
#X connect 7 1 9 0;
#X connect 8 0 24 0;
#X connect 8 0 15 0;
#X connect 9 0 8 0;
#X connect 10 0 8 0;
#X connect 11 0 4 0;
#X connect 12 0 36 0;
#X connect 13 0 6 0;
#X connect 14 0 20 0;
#X connect 14 0 20 1;
#X connect 15 0 19 0;
#X connect 15 0 18 0;
#X connect 16 0 14 0;
#X connect 17 0 16 1;
#X connect 18 0 16 0;
#X connect 19 0 14 0;
#X connect 20 0 22 0;
#X connect 20 0 22 1;
#X connect 22 0 1 0;
#X connect 23 0 1 0;
#X connect 24 0 23 0;
#X connect 25 0 10 0;
#X connect 25 0 27 0;
#X connect 26 0 2 0;
#X connect 27 0 9 0;
#X connect 28 0 32 0;
#X connect 29 0 5 0;
#X connect 30 0 33 0;
#X connect 31 0 28 0;
#X connect 32 0 37 0;
#X connect 33 0 17 0;
#X connect 34 0 13 1;
#X connect 35 0 12 0;
#X connect 36 0 34 0;
#X connect 37 0 27 0;
