#N canvas 447 461 1440 750 12;
#X obj 685 537 dac~;
#X obj 679 500 *~;
#X floatatom 740 477 5 0 0 0 - - -;
#X text 544 303 MIDI pitch;
#X obj 688 241 tgl 15 0 empty empty empty 17 7 0 10 -262144 -1 -1 1
1;
#X floatatom 803 298 5 0 0 0 - - -;
#X floatatom 793 249 5 0 0 0 - - -;
#X obj 720 435 r soundBar @hv_param 0 10 1;
#X obj 676 315 tgl 15 0 empty empty empty 17 7 0 10 -262144 -1 -1 0
1;
#X obj 669 336 sel 0 1;
#X floatatom 669 386 5 0 0 0 - - -;
#X floatatom 713 359 5 0 0 0 - - -;
#X floatatom 669 359 5 0 0 0 - - -;
#X obj 651 96 loadbang;
#X obj 762 138 r metro @hv_param 1 100000 500;
#X floatatom 751 213 5 0 0 0 - - -;
#X obj 670 289 metro;
#X obj 1092 468 line~;
#X obj 905 309 bng 15 250 50 0 empty empty empty 17 7 0 10 -262144
-1 -1;
#X obj 1214 407 pack 0 500;
#X floatatom 1069 289 5 0 0 0 - - -;
#X obj 979 295 del 500;
#X msg 848 369 1 50;
#X obj 1047 540 *~;
#X text 1117 285 decay time;
#X obj 799 537 *~;
#X obj 676 452 osc~;
#X obj 1100 202 r decayTime @hv_param 0 20000 1;
#X obj 887 91 r tonOne @hv_param 1 20000 50;
#X obj 844 184 r tonTwo @hv_param 1 20000 40;
#X obj 671 417 mtof~;
#X connect 1 0 0 0;
#X connect 1 0 0 1;
#X connect 2 0 1 1;
#X connect 4 0 16 0;
#X connect 5 0 11 0;
#X connect 6 0 12 0;
#X connect 7 0 2 0;
#X connect 8 0 9 0;
#X connect 9 0 12 0;
#X connect 9 1 11 0;
#X connect 10 0 30 0;
#X connect 10 0 18 0;
#X connect 11 0 10 0;
#X connect 12 0 10 0;
#X connect 13 0 4 0;
#X connect 14 0 15 0;
#X connect 15 0 16 1;
#X connect 16 0 8 0;
#X connect 17 0 23 0;
#X connect 17 0 23 1;
#X connect 18 0 22 0;
#X connect 18 0 21 0;
#X connect 19 0 17 0;
#X connect 20 0 19 1;
#X connect 21 0 19 0;
#X connect 22 0 17 0;
#X connect 23 0 25 0;
#X connect 23 0 25 1;
#X connect 25 0 1 0;
#X connect 26 0 1 0;
#X connect 27 0 20 0;
#X connect 28 0 6 0;
#X connect 29 0 5 0;
#X connect 30 0 26 0;
