#N canvas 1436 686 1716 1273 10;
#X obj 435 49 inlet;
#X obj 591 44 inlet;
#X obj 110 46 inlet~;
#X obj 109 176 outlet~;
#X obj 109 98 hip~;
#X obj 109 151 lop~;
#X obj 272 50 inlet~;
#X obj 271 180 outlet~;
#X obj 271 102 hip~;
#X obj 271 155 lop~;
#X obj 435 75 send \$0-lower_freq;
#X obj 591 68 send \$0-upper_freq;
#X obj 130 73 receive \$0-lower_freq;
#X obj 129 126 receive \$0-upper_freq;
#X obj 292 77 receive \$0-lower_freq;
#X obj 291 130 receive \$0-upper_freq;
#X obj 33 17 loadbang;
#X msg 43 65 bang;
#X connect 0 0 10 0;
#X connect 1 0 11 0;
#X connect 2 0 4 0;
#X connect 4 0 5 0;
#X connect 5 0 3 0;
#X connect 6 0 8 0;
#X connect 8 0 9 0;
#X connect 9 0 7 0;
#X connect 12 0 4 1;
#X connect 13 0 5 1;
#X connect 14 0 8 1;
#X connect 15 0 9 1;
#X connect 16 0 17 0;
#X connect 17 0 4 1;
#X connect 17 0 5 1;
